<?xml version="1.0" encoding="UTF-8" standalone="no"?>
<!DOCTYPE svg PUBLIC "-//W3C//DTD SVG 1.1//EN" "http://www.w3.org/Graphics/SVG/1.1/DTD/svg11.dtd">
<svg width="100%" height="100%" viewBox="0 0 512 512" version="1.1" xmlns="http://www.w3.org/2000/svg" xmlns:xlink="http://www.w3.org/1999/xlink" xml:space="preserve" xmlns:serif="http://www.serif.com/" style="fill-rule:evenodd;clip-rule:evenodd;stroke-linejoin:round;stroke-miterlimit:2;">
    <g transform="matrix(0.870751,0,0,0.870751,-22.6397,33.0888)">
        <path d="M524.531,69.836C524.368,69.519 524.097,69.271 523.767,69.136C485.644,51.645 445.413,39.172 404.081,32.03C403.313,31.887 402.535,32.255 402.158,32.94C396.68,42.883 391.707,53.096 387.258,63.54C342.705,56.777 297.385,56.777 252.832,63.54C248.354,53.069 243.301,42.854 237.697,32.94C237.304,32.272 236.539,31.909 235.773,32.03C194.437,39.157 154.203,51.631 116.085,69.137C115.759,69.275 115.483,69.512 115.297,69.813C39.068,183.651 18.186,294.69 28.43,404.354C28.488,404.897 28.764,405.393 29.195,405.729C73.582,438.594 123.231,463.681 176.02,479.918C176.78,480.146 177.606,479.875 178.083,479.242C189.421,463.815 199.467,447.479 208.12,430.4C208.252,430.139 208.321,429.851 208.321,429.559C208.321,428.78 207.832,428.08 207.101,427.812C191.259,421.75 175.921,414.443 161.233,405.959C160.658,405.621 160.303,405.001 160.303,404.334C160.303,403.745 160.579,403.189 161.048,402.833C164.13,400.524 167.214,398.122 170.157,395.696C170.689,395.257 171.427,395.158 172.057,395.44C268.286,439.357 372.467,439.357 467.557,395.44C468.188,395.14 468.939,395.231 469.481,395.673C472.425,398.099 475.508,400.524 478.613,402.833C479.088,403.188 479.369,403.748 479.369,404.342C479.369,405.004 479.019,405.619 478.451,405.959C463.796,414.515 448.445,421.817 432.561,427.789C431.835,428.065 431.353,428.765 431.353,429.541C431.353,429.84 431.424,430.134 431.561,430.4C440.358,447.384 450.39,463.699 461.575,479.215C462.039,479.866 462.873,480.149 463.638,479.915C516.522,463.733 566.258,438.644 610.7,405.729C611.138,405.41 611.417,404.917 611.465,404.377C623.729,277.594 590.933,167.465 524.531,69.836ZM222.491,337.58C193.519,337.58 169.647,310.993 169.647,278.341C169.647,245.689 193.056,219.1 222.491,219.1C252.156,219.1 275.797,245.92 275.334,278.339C275.334,310.993 251.924,337.58 222.491,337.58ZM417.871,337.58C388.9,337.58 365.028,310.993 365.028,278.341C365.028,245.689 388.437,219.1 417.871,219.1C447.538,219.1 471.178,245.92 470.715,278.339C470.715,310.993 447.538,337.58 417.871,337.58Z" style="fill:white;fill-rule:nonzero;"/>
    </g>
</svg>
