<?xml version="1.0" encoding="UTF-8" standalone="no"?>
<!DOCTYPE svg PUBLIC "-//W3C//DTD SVG 1.1//EN" "http://www.w3.org/Graphics/SVG/1.1/DTD/svg11.dtd">
<svg width="100%" height="100%" viewBox="0 0 1684 1002" version="1.1" xmlns="http://www.w3.org/2000/svg" xmlns:xlink="http://www.w3.org/1999/xlink" xml:space="preserve" xmlns:serif="http://www.serif.com/" style="fill-rule:evenodd;clip-rule:evenodd;stroke-linecap:round;stroke-linejoin:round;stroke-miterlimit:1.5;">
    <g transform="matrix(1,0,0,1,0,0.729163)">
        <g transform="matrix(1.01236,0,0,0.425551,64.263,170.263)">
            <rect x="118.368" y="138.631" width="541.491" height="361.509" style="fill:none;stroke:rgb(33,177,205);stroke-width:1.29px;"/>
        </g>
        <g transform="matrix(1.01236,0,0,0.425551,102.883,195.838)">
            <rect x="118.368" y="138.631" width="541.491" height="361.509" style="fill:none;stroke:rgb(33,177,205);stroke-width:1.29px;"/>
        </g>
        <g transform="matrix(1.29957,0,0,1.48671,788.995,223.465)">
            <rect x="118.368" y="138.631" width="541.491" height="361.509" style="fill:none;stroke:rgb(33,177,205);stroke-width:0.72px;"/>
        </g>
        <g transform="matrix(0.721207,0,0,0.825064,674.075,528.049)">
            <rect x="118.368" y="138.631" width="541.491" height="361.509" style="fill:none;stroke:rgb(33,177,205);stroke-width:1.29px;"/>
        </g>
        <g transform="matrix(0.152626,0,0,0.174605,883.433,879.702)">
            <rect x="118.368" y="138.631" width="541.491" height="361.509" style="fill:none;stroke:rgb(33,177,205);stroke-width:6.1px;"/>
        </g>
        <g transform="matrix(0.152626,0,0,0.174605,842.11,555.101)">
            <rect x="118.368" y="138.631" width="541.491" height="361.509" style="fill:none;stroke:rgb(33,177,205);stroke-width:6.1px;"/>
        </g>
        <g transform="matrix(0.152626,0,0,0.174605,1545.82,405.363)">
            <rect x="118.368" y="138.631" width="541.491" height="361.509" style="fill:none;stroke:rgb(33,177,205);stroke-width:6.1px;"/>
        </g>
        <g transform="matrix(0.276049,0,0,0.30255,1381.73,311.617)">
            <rect x="118.368" y="138.631" width="541.491" height="361.509" style="fill:none;stroke:rgb(33,177,205);stroke-width:3.45px;"/>
        </g>
        <g transform="matrix(0.743763,0,0,0.200181,-131.46,866.911)">
            <path d="M176.75,500.14L659.859,500.14L659.859,138.631L176.75,138.631" style="fill:none;stroke:rgb(33,177,205);stroke-width:1.84px;"/>
        </g>
        <g transform="matrix(0.0973408,0,0,0.198771,-12.5375,844.791)">
            <path d="M118.368,500.14L659.859,500.14L659.859,138.631L118.368,138.631" style="fill:none;stroke:rgb(33,177,205);stroke-width:6.39px;"/>
        </g>
        <g transform="matrix(0.0973408,0,0,0.108203,321.442,912.913)">
            <rect x="118.368" y="138.631" width="541.491" height="361.509" style="fill:none;stroke:rgb(33,177,205);stroke-width:9.72px;"/>
        </g>
        <g transform="matrix(0.0973408,0,0,0.108203,521.504,912.913)">
            <rect x="118.368" y="138.631" width="541.491" height="361.509" style="fill:none;stroke:rgb(33,177,205);stroke-width:9.72px;"/>
        </g>
        <g transform="matrix(0.0973408,0,0,0.108203,1582.3,17.5215)">
            <rect x="118.368" y="138.631" width="541.491" height="361.509" style="fill:none;stroke:rgb(33,177,205);stroke-width:9.72px;"/>
        </g>
        <g transform="matrix(0.0427807,0,0,0.108203,1547.31,17.5215)">
            <rect x="118.368" y="138.631" width="541.491" height="361.509" style="fill:none;stroke:rgb(33,177,205);stroke-width:12.15px;"/>
        </g>
        <g transform="matrix(0.0427807,0,0,0.108203,23.4644,17.5215)">
            <rect x="118.368" y="138.631" width="541.491" height="361.509" style="fill:none;stroke:rgb(33,177,205);stroke-width:12.15px;"/>
        </g>
        <g transform="matrix(0.303285,0,0,0.108203,34.0724,17.5215)">
            <rect x="118.368" y="138.631" width="541.491" height="361.509" style="fill:none;stroke:rgb(33,177,205);stroke-width:4.39px;"/>
        </g>
        <g transform="matrix(0.116688,0,0,0.361077,1530.13,760.107)">
            <rect x="118.368" y="138.631" width="541.491" height="361.509" style="fill:none;stroke:rgb(33,177,205);stroke-width:3.73px;"/>
        </g>
        <g transform="matrix(1,0,0,0.716808,0,122.933)">
            <path d="M1414.4,69.168L1414.4,529.222" style="fill:none;stroke:rgb(33,177,205);stroke-width:1.15px;"/>
        </g>
        <g transform="matrix(1,0,0,0.716808,149.478,226.688)">
            <path d="M1414.4,69.168L1414.4,529.222" style="fill:none;stroke:rgb(33,177,205);stroke-width:1.15px;"/>
        </g>
        <g transform="matrix(1,0,0,0.716808,129.544,226.688)">
            <path d="M1414.4,69.168L1414.4,529.222" style="fill:none;stroke:rgb(33,177,205);stroke-width:1.15px;"/>
        </g>
        <g transform="matrix(1,0,0,0.716808,-451.647,263.077)">
            <path d="M1414.4,69.168L1414.4,529.222" style="fill:none;stroke:rgb(33,177,205);stroke-width:1.15px;"/>
        </g>
        <g transform="matrix(1,0,0,0.716808,-149.478,50.2177)">
            <path d="M1414.4,69.168L1414.4,529.222" style="fill:none;stroke:rgb(33,177,205);stroke-width:1.15px;"/>
        </g>
    </g>
</svg>
