<?xml version="1.0" encoding="UTF-8" standalone="no"?>
<!DOCTYPE svg PUBLIC "-//W3C//DTD SVG 1.1//EN" "http://www.w3.org/Graphics/SVG/1.1/DTD/svg11.dtd">
<svg width="100%" height="100%" viewBox="0 0 233 233" version="1.1" xmlns="http://www.w3.org/2000/svg" xmlns:xlink="http://www.w3.org/1999/xlink" xml:space="preserve" xmlns:serif="http://www.serif.com/" style="fill-rule:evenodd;clip-rule:evenodd;stroke-linejoin:round;stroke-miterlimit:2;">
    <path d="M53.62,112.455L53.62,201.477L16.82,201.477C7.537,201.477 0,193.94 0,184.656L0,54.486C0,39.689 12.013,27.676 26.81,27.676C33.059,27.676 38.811,29.818 43.372,33.408L43.372,33.348L116.5,90.825L189.628,33.348L189.628,33.408C194.189,29.818 199.941,27.676 206.19,27.676C220.987,27.676 233,39.689 233,54.486L233,184.656C233,193.94 225.463,201.477 216.18,201.477L179.38,201.477L179.38,112.455L116.5,161.825L53.62,112.455Z" style="fill:white;"/>
</svg>
